<svg id="Capa_1" enable-background="new 0 0 512 512" viewBox="0 0 512 512" xmlns="http://www.w3.org/2000/svg"><g><g><g><path d="m84.85 366.035-81-90c-5.542-6.158-5.043-15.642 1.115-21.184 6.158-5.542 15.642-5.043 21.184 1.115l69.177 76.864 148.96-186.2c5.175-6.469 14.615-7.518 21.084-2.343 6.469 5.175 7.517 14.614 2.342 21.083l-160 200c-5.782 7.23-16.669 7.546-22.862.665z" fill="#3b0666" style="fill: rgb(106, 14, 149);"></path></g></g><g><g><path d="m325.85 366.035-81-90c-5.542-6.158-5.043-15.642 1.115-21.184 6.158-5.542 15.642-5.043 21.184 1.115l69.177 76.864 148.96-186.2c5.175-6.469 14.615-7.518 21.084-2.343 6.469 5.175 7.517 14.614 2.342 21.083l-160 200c-5.782 7.23-16.669 7.546-22.862.665z" fill="#3b0666" style="fill: rgb(106, 14, 149);"></path></g><g><path d="m265.37 144.287c-6.469-5.175-15.908-4.126-21.084 2.343l-108.786 135.984v48.023l132.213-165.267c5.175-6.468 4.126-15.907-2.343-21.083z" fill="#51078d"></path></g><g><path d="m506.37 144.288c-6.469-5.175-15.908-4.126-21.084 2.343l-108.786 135.983v48.023l132.213-165.267c5.175-6.468 4.126-15.907-2.343-21.082z" fill="#51078d"></path></g></g></g></svg>